# Blender v2.63 (sub 0) OBJ File: 'spikesLightest.blend'
# www.blender.org
o Cone.008_Cone.009
v 1.000000 -0.455000 0.545000
v 1.000000 0.455000 1.000000
v 1.394042 -0.455000 1.227500
v 0.605958 -0.455000 1.227500
vn 0.000000 1.000000 0.000000
vn 0.000000 -0.387341 -0.921903
vn -0.798395 -0.387341 0.460952
vn 0.798395 -0.387341 0.460952
s 1
f 2//1 1//2 4//3
f 1//2 2//1 3//4
f 3//4 2//1 4//3
f 1//2 3//4 4//3
o Cone.007_Cone.008
v 1.000000 -0.455000 -0.455000
v 1.000000 0.455000 0.000000
v 1.394042 -0.455000 0.227500
v 0.605958 -0.455000 0.227500
s 1
f 6//1 5//2 8//3
f 5//2 6//1 7//4
f 7//4 6//1 8//3
f 5//2 7//4 8//3
o Cone.006_Cone.007
v 1.000000 -0.455000 -1.455000
v 1.000000 0.455000 -1.000000
v 1.394042 -0.455000 -0.772500
v 0.605958 -0.455000 -0.772500
s 1
f 10//1 9//2 12//3
f 9//2 10//1 11//4
f 11//4 10//1 12//3
f 9//2 11//4 12//3
o Cone.005_Cone.006
v 0.000000 -0.455000 -1.455000
v 0.000000 0.455000 -1.000000
v 0.394042 -0.455000 -0.772500
v -0.394042 -0.455000 -0.772500
s 1
f 14//1 13//2 16//3
f 13//2 14//1 15//4
f 15//4 14//1 16//3
f 13//2 15//4 16//3
o Cone.004_Cone.005
v 0.000000 -0.455000 0.545000
v 0.000000 0.455000 1.000000
v 0.394042 -0.455000 1.227500
v -0.394042 -0.455000 1.227500
s 1
f 18//1 17//2 20//3
f 17//2 18//1 19//4
f 19//4 18//1 20//3
f 17//2 19//4 20//3
o Cone.003_Cone.004
v -1.000000 -0.455000 -1.455000
v -1.000000 0.455000 -1.000000
v -0.605958 -0.455000 -0.772500
v -1.394042 -0.455000 -0.772500
s 1
f 22//1 21//2 24//3
f 21//2 22//1 23//4
f 23//4 22//1 24//3
f 21//2 23//4 24//3
o Cone.002_Cone.003
v -1.000000 -0.455000 -0.455000
v -1.000000 0.455000 0.000000
v -0.605958 -0.455000 0.227500
v -1.394042 -0.455000 0.227500
s 1
f 26//1 25//2 28//3
f 25//2 26//1 27//4
f 27//4 26//1 28//3
f 25//2 27//4 28//3
o Cone.001_Cone.002
v -1.000000 -0.455000 0.545000
v -1.000000 0.455000 1.000000
v -0.605958 -0.455000 1.227500
v -1.394042 -0.455000 1.227500
s 1
f 30//1 29//2 32//3
f 29//2 30//1 31//4
f 31//4 30//1 32//3
f 29//2 31//4 32//3
o Cone_Cone.001
v 0.000000 -0.455000 -0.455000
v 0.000000 0.455000 0.000000
v 0.394042 -0.455000 0.227500
v -0.394042 -0.455000 0.227500
s 1
f 34//1 33//2 36//3
f 33//2 34//1 35//4
f 35//4 34//1 36//3
f 33//2 35//4 36//3
