# Blender v2.63 (sub 0) OBJ File: 'spikes.blend'
# www.blender.org
mtllib spikes.mtl
o Plane
v 1.500000 -0.500000 1.500000
v -1.500000 -0.500000 1.500000
v 1.500000 -0.500000 -1.500000
v -1.500000 -0.500000 -1.500000
vn 0.000000 1.000000 -0.000000
usemtl 
s off
f 2//1 1//1 3//1
f 2//1 3//1 4//1
o Cone.008
v 1.000000 -0.455085 0.544915
v 1.227542 -0.455085 0.605885
v 1.394115 -0.455085 0.772458
v 1.455085 -0.455085 1.000000
v 1.000000 0.455085 1.000000
v 1.394115 -0.455085 1.227542
v 1.227542 -0.455085 1.394115
v 1.000000 -0.455085 1.455085
v 0.772458 -0.455085 1.394115
v 0.605885 -0.455085 1.227543
v 0.544915 -0.455085 1.000000
v 0.605885 -0.455085 0.772458
v 0.772457 -0.455085 0.605885
vn -0.763695 -0.471358 -0.441054
vn -0.440870 -0.471358 -0.763817
vn 0.000061 -0.471328 -0.881924
vn 0.440992 -0.471297 -0.763756
vn 0.763756 -0.471297 -0.440992
vn -0.881893 -0.471389 -0.000061
vn -0.763756 -0.471419 0.440901
vn -0.440901 -0.471419 0.763756
vn 0.000061 -0.471389 0.881893
vn 0.441054 -0.471358 0.763695
vn 0.763817 -0.471358 0.440870
vn 0.881924 -0.471328 -0.000061
usemtl 
s 1
f 16//2 9//1 17//3
f 5//4 9//1 6//5
f 9//1 5//4 17//3
f 6//5 9//1 7//6
f 15//7 9//1 16//2
f 14//8 9//1 15//7
f 13//9 9//1 14//8
f 12//10 9//1 13//9
f 11//11 9//1 12//10
f 10//12 9//1 11//11
f 8//13 9//1 10//12
f 7//6 9//1 8//13
f 5//4 6//5 17//3
f 6//5 7//6 17//3
f 7//6 16//2 17//3
f 7//6 8//13 16//2
f 8//13 15//7 16//2
f 8//13 10//12 15//7
f 10//12 14//8 15//7
f 10//12 11//11 14//8
f 11//11 13//9 14//8
f 11//11 12//10 13//9
o Cone.007
v 0.000000 -0.455085 0.544915
v 0.227542 -0.455085 0.605885
v 0.394115 -0.455085 0.772458
v 0.455085 -0.455085 1.000000
v 0.000000 0.455085 1.000000
v 0.394115 -0.455085 1.227542
v 0.227542 -0.455085 1.394115
v 0.000000 -0.455085 1.455085
v -0.227542 -0.455085 1.394115
v -0.394115 -0.455085 1.227543
v -0.455085 -0.455085 1.000000
v -0.394115 -0.455085 0.772458
v -0.227543 -0.455085 0.605885
usemtl 
s 1
f 29//2 22//1 30//3
f 18//4 22//1 19//5
f 22//1 18//4 30//3
f 19//5 22//1 20//6
f 28//7 22//1 29//2
f 27//8 22//1 28//7
f 26//9 22//1 27//8
f 25//10 22//1 26//9
f 24//11 22//1 25//10
f 23//12 22//1 24//11
f 21//13 22//1 23//12
f 20//6 22//1 21//13
f 18//4 19//5 30//3
f 19//5 20//6 30//3
f 20//6 29//2 30//3
f 20//6 21//13 29//2
f 21//13 28//7 29//2
f 21//13 23//12 28//7
f 23//12 27//8 28//7
f 23//12 24//11 27//8
f 24//11 26//9 27//8
f 24//11 25//10 26//9
o Cone.006
v -1.000000 -0.455085 -1.455085
v -0.772458 -0.455085 -1.394115
v -0.605885 -0.455085 -1.227542
v -0.544915 -0.455085 -1.000000
v -1.000000 0.455085 -1.000000
v -0.605885 -0.455085 -0.772458
v -0.772458 -0.455085 -0.605885
v -1.000000 -0.455085 -0.544915
v -1.227542 -0.455085 -0.605885
v -1.394115 -0.455085 -0.772457
v -1.455085 -0.455085 -1.000000
v -1.394115 -0.455085 -1.227542
v -1.227543 -0.455085 -1.394115
vn -0.763817 -0.471267 -0.440962
vn -0.441084 -0.471297 -0.763726
vn -0.000183 -0.471328 -0.881924
vn 0.440748 -0.471358 -0.763878
vn 0.763634 -0.471419 -0.441084
vn -0.881954 -0.471267 -0.000061
vn -0.763878 -0.471297 0.440809
vn -0.441145 -0.471358 0.763665
vn -0.000183 -0.471389 0.881893
vn 0.440809 -0.471419 0.763787
vn 0.763695 -0.471450 0.440962
vn 0.881863 -0.471450 -0.000061
usemtl 
s 1
f 42//14 35//1 43//15
f 31//16 35//1 32//17
f 35//1 31//16 43//15
f 32//17 35//1 33//18
f 41//19 35//1 42//14
f 40//20 35//1 41//19
f 39//21 35//1 40//20
f 38//22 35//1 39//21
f 37//23 35//1 38//22
f 36//24 35//1 37//23
f 34//25 35//1 36//24
f 33//18 35//1 34//25
f 31//16 32//17 43//15
f 32//17 33//18 43//15
f 33//18 42//14 43//15
f 33//18 34//25 42//14
f 34//25 41//19 42//14
f 34//25 36//24 41//19
f 36//24 40//20 41//19
f 36//24 37//23 40//20
f 37//23 39//21 40//20
f 37//23 38//22 39//21
o Cone.005
v 0.000000 -0.455085 -1.455085
v 0.227542 -0.455085 -1.394115
v 0.394115 -0.455085 -1.227542
v 0.455085 -0.455085 -1.000000
v 0.000000 0.455085 -1.000000
v 0.394115 -0.455085 -0.772458
v 0.227542 -0.455085 -0.605885
v 0.000000 -0.455085 -0.544915
v -0.227542 -0.455085 -0.605885
v -0.394115 -0.455085 -0.772457
v -0.455085 -0.455085 -1.000000
v -0.394115 -0.455085 -1.227542
v -0.227543 -0.455085 -1.394115
usemtl 
s 1
f 55//14 48//1 56//15
f 44//16 48//1 45//17
f 48//1 44//16 56//15
f 45//17 48//1 46//18
f 54//19 48//1 55//14
f 53//20 48//1 54//19
f 52//21 48//1 53//20
f 51//22 48//1 52//21
f 50//23 48//1 51//22
f 49//24 48//1 50//23
f 47//25 48//1 49//24
f 46//18 48//1 47//25
f 44//16 45//17 56//15
f 45//17 46//18 56//15
f 46//18 55//14 56//15
f 46//18 47//25 55//14
f 47//25 54//19 55//14
f 47//25 49//24 54//19
f 49//24 53//20 54//19
f 49//24 50//23 53//20
f 50//23 52//21 53//20
f 50//23 51//22 52//21
o Cone.004
v 1.000000 -0.455085 -1.455085
v 1.227542 -0.455085 -1.394115
v 1.394115 -0.455085 -1.227542
v 1.455085 -0.455085 -1.000000
v 1.000000 0.455085 -1.000000
v 1.394115 -0.455085 -0.772458
v 1.227542 -0.455085 -0.605885
v 1.000000 -0.455085 -0.544915
v 0.772458 -0.455085 -0.605885
v 0.605885 -0.455085 -0.772457
v 0.544915 -0.455085 -1.000000
v 0.605885 -0.455085 -1.227542
v 0.772457 -0.455085 -1.394115
usemtl 
s 1
f 68//14 61//1 69//15
f 57//16 61//1 58//17
f 61//1 57//16 69//15
f 58//17 61//1 59//18
f 67//19 61//1 68//14
f 66//20 61//1 67//19
f 65//21 61//1 66//20
f 64//22 61//1 65//21
f 63//23 61//1 64//22
f 62//24 61//1 63//23
f 60//25 61//1 62//24
f 59//18 61//1 60//25
f 57//16 58//17 69//15
f 58//17 59//18 69//15
f 59//18 68//14 69//15
f 59//18 60//25 68//14
f 60//25 67//19 68//14
f 60//25 62//24 67//19
f 62//24 66//20 67//19
f 62//24 63//23 66//20
f 63//23 65//21 66//20
f 63//23 64//22 65//21
o Cone.003
v -1.000000 -0.455085 0.544915
v -0.772458 -0.455085 0.605885
v -0.605885 -0.455085 0.772458
v -0.544915 -0.455085 1.000000
v -1.000000 0.455085 1.000000
v -0.605885 -0.455085 1.227542
v -0.772458 -0.455085 1.394115
v -1.000000 -0.455085 1.455085
v -1.227542 -0.455085 1.394115
v -1.394115 -0.455085 1.227543
v -1.455085 -0.455085 1.000000
v -1.394115 -0.455085 0.772458
v -1.227543 -0.455085 0.605885
usemtl 
s 1
f 81//2 74//1 82//3
f 70//4 74//1 71//5
f 74//1 70//4 82//3
f 71//5 74//1 72//6
f 80//7 74//1 81//2
f 79//8 74//1 80//7
f 78//9 74//1 79//8
f 77//10 74//1 78//9
f 76//11 74//1 77//10
f 75//12 74//1 76//11
f 73//13 74//1 75//12
f 72//6 74//1 73//13
f 70//4 71//5 82//3
f 71//5 72//6 82//3
f 72//6 81//2 82//3
f 72//6 73//13 81//2
f 73//13 80//7 81//2
f 73//13 75//12 80//7
f 75//12 79//8 80//7
f 75//12 76//11 79//8
f 76//11 78//9 79//8
f 76//11 77//10 78//9
o Cone.002
v -1.000000 -0.455085 -0.455085
v -0.772458 -0.455085 -0.394115
v -0.605885 -0.455085 -0.227542
v -0.544915 -0.455085 0.000000
v -1.000000 0.455085 0.000000
v -0.605885 -0.455085 0.227542
v -0.772458 -0.455085 0.394115
v -1.000000 -0.455085 0.455085
v -1.227542 -0.455085 0.394115
v -1.394115 -0.455085 0.227543
v -1.455085 -0.455085 0.000000
v -1.394115 -0.455085 -0.227542
v -1.227543 -0.455085 -0.394115
vn -0.763756 -0.471328 -0.440992
vn -0.440962 -0.471328 -0.763787
vn -0.000061 -0.471328 -0.881924
vn 0.440870 -0.471328 -0.763817
vn 0.763695 -0.471358 -0.441054
vn -0.881924 -0.471328 -0.000061
vn -0.763817 -0.471358 0.440870
vn -0.441023 -0.471389 0.763695
vn -0.000061 -0.471389 0.881893
vn 0.440931 -0.471389 0.763756
vn 0.763756 -0.471389 0.440901
vn 0.881893 -0.471389 -0.000061
usemtl 
s 1
f 94//26 87//1 95//27
f 83//28 87//1 84//29
f 87//1 83//28 95//27
f 84//29 87//1 85//30
f 93//31 87//1 94//26
f 92//32 87//1 93//31
f 91//33 87//1 92//32
f 90//34 87//1 91//33
f 89//35 87//1 90//34
f 88//36 87//1 89//35
f 86//37 87//1 88//36
f 85//30 87//1 86//37
f 83//28 84//29 95//27
f 84//29 85//30 95//27
f 85//30 94//26 95//27
f 85//30 86//37 94//26
f 86//37 93//31 94//26
f 86//37 88//36 93//31
f 88//36 92//32 93//31
f 88//36 89//35 92//32
f 89//35 91//33 92//32
f 89//35 90//34 91//33
o Cone.001
v 1.000000 -0.455085 -0.455085
v 1.227542 -0.455085 -0.394115
v 1.394115 -0.455085 -0.227542
v 1.455085 -0.455085 0.000000
v 1.000000 0.455085 0.000000
v 1.394115 -0.455085 0.227542
v 1.227542 -0.455085 0.394115
v 1.000000 -0.455085 0.455085
v 0.772458 -0.455085 0.394115
v 0.605885 -0.455085 0.227543
v 0.544915 -0.455085 0.000000
v 0.605885 -0.455085 -0.227542
v 0.772457 -0.455085 -0.394115
usemtl 
s 1
f 107//26 100//1 108//27
f 96//28 100//1 97//29
f 100//1 96//28 108//27
f 97//29 100//1 98//30
f 106//31 100//1 107//26
f 105//32 100//1 106//31
f 104//33 100//1 105//32
f 103//34 100//1 104//33
f 102//35 100//1 103//34
f 101//36 100//1 102//35
f 99//37 100//1 101//36
f 98//30 100//1 99//37
f 96//28 97//29 108//27
f 97//29 98//30 108//27
f 98//30 107//26 108//27
f 98//30 99//37 107//26
f 99//37 106//31 107//26
f 99//37 101//36 106//31
f 101//36 105//32 106//31
f 101//36 102//35 105//32
f 102//35 104//33 105//32
f 102//35 103//34 104//33
o Cone
v 0.000000 -0.455085 -0.455085
v 0.227542 -0.455085 -0.394115
v 0.394115 -0.455085 -0.227542
v 0.455085 -0.455085 0.000000
v 0.000000 0.455085 0.000000
v 0.394115 -0.455085 0.227542
v 0.227542 -0.455085 0.394115
v 0.000000 -0.455085 0.455085
v -0.227542 -0.455085 0.394115
v -0.394115 -0.455085 0.227543
v -0.455085 -0.455085 0.000000
v -0.394115 -0.455085 -0.227542
v -0.227543 -0.455085 -0.394115
usemtl 
s 1
f 120//26 113//1 121//27
f 109//28 113//1 110//29
f 113//1 109//28 121//27
f 110//29 113//1 111//30
f 119//31 113//1 120//26
f 118//32 113//1 119//31
f 117//33 113//1 118//32
f 116//34 113//1 117//33
f 115//35 113//1 116//34
f 114//36 113//1 115//35
f 112//37 113//1 114//36
f 111//30 113//1 112//37
f 109//28 110//29 121//27
f 110//29 111//30 121//27
f 111//30 120//26 121//27
f 111//30 112//37 120//26
f 112//37 119//31 120//26
f 112//37 114//36 119//31
f 114//36 118//32 119//31
f 114//36 115//35 118//32
f 115//35 117//33 118//32
f 115//35 116//34 117//33
